<svg width="48" height="48" viewBox="0 0 48 48" fill="none" xmlns="http://www.w3.org/2000/svg">
<path d="M12 8L36 8L36 40L12 40L12 8Z" fill="#FF7043"/>
<path d="M12 8L36 8L36 40L24 32L12 40L12 8Z" fill="#FF5722"/>
<path d="M16 12L32 12L32 36L16 36L16 12Z" fill="#FFCCBC"/>
<path d="M16 16H32" stroke="#FF3D00" stroke-width="1"/>
<path d="M16 20H32" stroke="#FF3D00" stroke-width="1"/>
<path d="M16 24H28" stroke="#FF3D00" stroke-width="1"/>
<path d="M16 28H30" stroke="#FF3D00" stroke-width="1"/>
<path d="M16 32H26" stroke="#FF3D00" stroke-width="1"/>
<circle cx="20" cy="16" r="1" fill="#FF3D00"/>
<circle cx="20" cy="20" r="1" fill="#FF3D00"/>
<circle cx="20" cy="24" r="1" fill="#FF3D00"/>
<circle cx="20" cy="28" r="1" fill="#FF3D00"/>
<circle cx="20" cy="32" r="1" fill="#FF3D00"/>
</svg>
