<svg role="img" viewBox="0 0 24 24" xmlns="http://www.w3.org/2000/svg" id="Typeorm--Streamline-Simple-Icons" height="24" width="24">
  <desc>
    Typeorm Streamline Icon: https://streamlinehq.com
  </desc>
  <title>TypeORM</title>
  <path d="M22.593 6.863c0 0.9 -0.008 1.742 0.004 2.583 0.006 0.355 0.07 0.708 0.21 1.038 0.133 0.306 0.35 0.544 0.652 0.692 0.153 0.075 0.314 0.131 0.47 0.204a0.134 0.13 0 0 1 0.066 0.099q0.008 0.58 0 1.16c0 0.039 -0.052 0.097 -0.093 0.11a1.818 1.82 0 0 0 -1.178 1.22c-0.125 0.387 -0.137 0.785 -0.137 1.187q0.002 2.24 -0.006 4.48c0 0.466 -0.07 0.926 -0.225 1.363 -0.087 0.241 -0.226 0.463 -0.347 0.69 -0.016 0.031 -0.05 0.052 -0.08 0.073 -0.185 0.137 -0.365 0.287 -0.56 0.407 -0.169 0.103 -0.354 0.177 -0.535 0.255 -0.114 0.048 -0.236 0.082 -0.352 0.121q-0.025 0.01 -0.05 0.014c-0.23 0.028 -0.46 0.062 -0.689 0.083q-0.418 0.033 -0.834 0.052c-0.061 0.003 -0.123 -0.02 -0.183 -0.026 -0.104 -0.01 -0.13 -0.07 -0.128 -0.168a31.962 32 0 0 0 0 -1.017c0 -0.104 0.027 -0.15 0.139 -0.141 0.117 0.007 0.24 0.012 0.354 -0.004q0.332 -0.047 0.655 -0.125a2.996 3 0 0 0 0.44 -0.153 0.94 0.94 0 0 0 0.456 -0.409c0.125 -0.208 0.185 -0.437 0.236 -0.676 0.057 -0.263 0.036 -0.52 0.04 -0.78 0.007 -1.485 0 -2.97 0.008 -4.456q0.003 -0.47 0.078 -0.935a2.148 2.15 0 0 1 1.09 -1.585l0.25 -0.143c0.061 -0.037 0.054 -0.107 -0.016 -0.144a2.797 2.8 0 0 1 -0.815 -0.646 2.097 2.1 0 0 1 -0.39 -0.711c-0.18 -0.551 -0.205 -1.12 -0.202 -1.694 0.002 -1.446 -0.01 -2.892 0 -4.337a2.996 3 0 0 0 -0.072 -0.666c-0.08 -0.37 -0.24 -0.712 -0.59 -0.909a2.298 2.3 0 0 0 -0.467 -0.177 2.996 3 0 0 0 -0.503 -0.11 3.995 4 0 0 0 -0.54 -0.025c-0.113 0.001 -0.153 -0.03 -0.15 -0.147 0.006 -0.364 0.003 -0.728 0.001 -1.092 0 -0.089 0.03 -0.122 0.117 -0.119 0.196 0.005 0.39 -0.007 0.584 0.004 0.272 0.016 0.545 0.035 0.815 0.073a3.096 3.1 0 0 1 1.598 0.714c0.252 0.215 0.408 0.479 0.534 0.772 0.15 0.346 0.226 0.71 0.275 1.082 0.13 0.99 0.03 1.986 0.072 2.918ZM1.421 6.715c0 -0.581 -0.006 -1.163 0.002 -1.745 0.006 -0.382 0.009 -0.77 0.049 -1.149 0.027 -0.263 0.11 -0.52 0.18 -0.778a1.798 1.8 0 0 1 0.366 -0.723 2.466 2.4 0 0 1 0.508 -0.449c0.194 -0.127 0.416 -0.208 0.629 -0.305 0.17 -0.076 0.348 -0.108 0.53 -0.141A8.29 8.3 0 0 1 5.258 1.3c0.09 0 0.122 0.027 0.12 0.117q-0.004 0.558 0 1.118c0 0.091 -0.028 0.126 -0.123 0.122a1.598 1.6 0 0 0 -0.321 0.003 7.99 8 0 0 0 -0.704 0.127c-0.15 0.035 -0.291 0.094 -0.434 0.148a0.94 0.94 0 0 0 -0.46 0.406c-0.123 0.208 -0.183 0.44 -0.238 0.68 -0.067 0.3 0.008 0.588 0.002 0.882 -0.02 1.329 -0.006 2.658 -0.01 3.99a9.988 10 0 0 1 -0.051 1.098c-0.08 0.724 -0.385 1.328 -1.024 1.727q-0.173 0.103 -0.345 0.209c-0.023 0.014 -0.051 0.049 -0.047 0.068a0.14 0.14 0 0 0 0.058 0.084 2.897 2.9 0 0 1 0.843 0.678c0.19 0.23 0.311 0.494 0.4 0.78 0.15 0.496 0.159 1.006 0.164 1.516 0.008 1.298 0.002 2.597 0.003 3.896 0 0.144 0.015 0.288 0.013 0.431 0 0.072 -0.025 0.143 -0.027 0.215q-0.004 0.126 0.005 0.253c0.003 0.052 0.02 0.104 0.029 0.156 0.043 0.301 0.137 0.583 0.336 0.817 0.131 0.153 0.303 0.252 0.494 0.321 0.201 0.072 0.41 0.1 0.616 0.149 0.246 0.058 0.485 0.044 0.73 0.054 0.065 0.003 0.09 0.03 0.09 0.093 0 0.392 0.002 0.784 -0.005 1.176 0 0.029 -0.053 0.081 -0.082 0.081 -0.252 0.005 -0.503 0.01 -0.754 -0.002a4.994 5 0 0 1 -0.678 -0.069c-0.234 -0.044 -0.46 -0.122 -0.69 -0.186a2.148 2.15 0 0 1 -0.955 -0.572 1.898 1.9 0 0 1 -0.376 -0.54 4.195 4.2 0 0 1 -0.292 -0.87 4.994 5 0 0 1 -0.103 -0.964c-0.015 -1.423 -0.013 -2.846 -0.023 -4.268 -0.002 -0.322 -0.004 -0.645 -0.039 -0.964 -0.04 -0.36 -0.12 -0.712 -0.342 -1.013a1.498 1.5 0 0 0 -0.624 -0.487c-0.11 -0.048 -0.226 -0.083 -0.334 -0.137 -0.037 -0.02 -0.077 -0.075 -0.077 -0.115q-0.006 -0.56 -0.003 -1.118c0 -0.1 0.088 -0.118 0.155 -0.141 0.372 -0.13 0.676 -0.348 0.891 -0.684a2.048 2.05 0 0 0 0.344 -1.087c0.022 -0.92 0.03 -1.841 0.044 -2.76h-0.016Zm6.035 0.98v-3.11c0 -0.295 0.175 -0.472 0.472 -0.472h5.152c0.296 0 0.473 0.177 0.473 0.472v6.2c0 0.32 -0.17 0.49 -0.488 0.49 -1.708 0 -3.412 -0.002 -5.12 0.004 -0.287 0 -0.494 -0.197 -0.49 -0.493 0.006 -1.03 0.002 -2.06 0.002 -3.091m0.245 0.002v3.091c0 0.208 0.035 0.242 0.24 0.242h5.119c0.214 0 0.246 -0.03 0.246 -0.244V4.603c0 -0.213 -0.033 -0.245 -0.244 -0.245H7.945c-0.21 0 -0.242 0.033 -0.242 0.247zm-0.245 8.39v-3.1c0 -0.298 0.173 -0.474 0.471 -0.474h5.152c0.3 0 0.473 0.177 0.473 0.48v6.184q0 0.499 -0.496 0.499h-5.11c-0.32 0 -0.488 -0.17 -0.488 -0.489zm0.245 0.006v3.109c0 0.189 0.039 0.228 0.227 0.228h5.142c0.202 0 0.236 -0.035 0.236 -0.239v-6.197c0 -0.197 -0.038 -0.234 -0.233 -0.234H7.941c-0.205 0 -0.24 0.035 -0.24 0.243zm8.741 -4.058q-0.002 2.09 0.002 4.184c0 0.11 -0.03 0.143 -0.14 0.142a96.883 97 0 0 0 -1.752 0c-0.104 0 -0.12 -0.04 -0.12 -0.13 0 -0.093 0.03 -0.12 0.12 -0.12 0.5 0.004 1 0 1.499 0.004 0.108 0 0.148 -0.031 0.148 -0.145q-0.003 -3.934 0 -7.868c0 -0.112 -0.036 -0.147 -0.147 -0.146 -0.5 0.005 -0.999 0 -1.498 0.004 -0.1 0 -0.123 -0.034 -0.123 -0.128 0 -0.09 0.024 -0.122 0.119 -0.121q0.888 0.005 1.776 0c0.096 0 0.117 0.033 0.117 0.122q-0.002 2.101 0 4.202m-5.9 -6.336q-1.024 0 -2.047 -0.002c-0.04 0 -0.109 -0.01 -0.113 -0.028 -0.012 -0.061 -0.004 -0.127 0 -0.191 0 -0.01 0.031 -0.02 0.052 -0.023q0.04 -0.004 0.082 -0.002h4.046c0.133 0 0.194 0.088 0.137 0.208 -0.01 0.024 -0.066 0.036 -0.1 0.036q-0.846 0.002 -1.691 0.001zm0.273 1.413c-0.585 0 -1.17 -0.004 -1.758 0.003 -0.13 0 -0.118 -0.068 -0.123 -0.153 -0.007 -0.102 0.055 -0.097 0.123 -0.097h3.526c0.068 0 0.13 -0.004 0.123 0.097 -0.005 0.086 0.006 0.154 -0.123 0.153 -0.59 -0.008 -1.178 -0.003 -1.766 -0.003Zm0.005 1.307c0.59 0 1.178 0.002 1.767 -0.002 0.103 0 0.118 0.041 0.12 0.13 0 0.093 -0.03 0.12 -0.12 0.12a737.113 738 0 0 0 -3.536 0c-0.092 0 -0.121 -0.029 -0.12 -0.121 0 -0.09 0.02 -0.13 0.121 -0.13q0.886 0.005 1.768 0.003m-0.009 1.797c-0.585 0 -1.173 -0.002 -1.759 0.002 -0.093 0 -0.12 -0.03 -0.12 -0.122 0 -0.093 0.023 -0.128 0.123 -0.126q1.764 0.006 3.528 0c0.098 0 0.123 0.03 0.123 0.125 0.002 0.1 -0.03 0.124 -0.127 0.123q-0.884 -0.003 -1.768 -0.002M8.564 8.664H8.53c-0.16 0 -0.202 -0.034 -0.147 -0.187 0.045 -0.129 0.185 -0.035 0.28 -0.055 0.027 -0.004 0.087 0.033 0.092 0.06 0.03 0.172 0.017 0.181 -0.19 0.181Zm0.003 -1.799h0.034c0.166 0 0.206 0.031 0.148 0.19 -0.047 0.13 -0.187 0.034 -0.284 0.052 -0.023 0.006 -0.08 -0.038 -0.084 -0.064 -0.024 -0.177 -0.02 -0.177 0.185 -0.177Zm0.002 3.351h-0.051q-0.206 0.001 -0.138 -0.2c0.006 -0.02 0.038 -0.04 0.06 -0.042 0.06 -0.006 0.118 -0.002 0.176 -0.002 0.133 0 0.19 0.086 0.135 0.208 -0.006 0.018 -0.041 0.03 -0.066 0.034 -0.038 0.006 -0.078 0.002 -0.117 0.002Zm1.973 3.638q1.025 0.001 2.047 -0.002c0.092 0 0.12 0.027 0.12 0.12 0 0.09 -0.017 0.13 -0.119 0.128a878.942 880 0 0 0 -4.093 0c-0.096 0 -0.126 -0.027 -0.126 -0.124s0.03 -0.125 0.125 -0.125q1.025 0.004 2.046 0.003m0.272 1.658c-0.585 0 -1.171 -0.004 -1.758 0.003 -0.134 0 -0.113 -0.076 -0.119 -0.156 -0.007 -0.097 0.051 -0.094 0.12 -0.094h3.533c0.075 0 0.126 0.005 0.12 0.103 -0.007 0.081 0.006 0.15 -0.12 0.148 -0.592 -0.006 -1.184 -0.002 -1.776 -0.002Zm0 1.551q-0.88 -0.002 -1.758 0.002c-0.1 0 -0.12 -0.037 -0.121 -0.129 0 -0.091 0.029 -0.12 0.12 -0.12q1.768 0.004 3.535 0c0.09 0 0.121 0.027 0.12 0.12 0 0.089 -0.016 0.13 -0.12 0.128q-0.887 -0.004 -1.775 -0.002Zm0.009 1.309q0.883 0.002 1.767 -0.002c0.096 0 0.12 0.033 0.12 0.122 -0.002 0.086 -0.015 0.127 -0.116 0.126a742.107 743 0 0 0 -3.545 0c-0.092 0 -0.116 -0.033 -0.113 -0.118 0.001 -0.08 0.005 -0.131 0.11 -0.13q0.889 0.004 1.778 0.002m-2.257 -3.108h0.025c0.177 0 0.2 0.013 0.157 0.185 -0.033 0.13 -0.161 0.042 -0.246 0.06 -0.043 0.008 -0.117 0.033 -0.127 -0.06 -0.02 -0.179 -0.016 -0.184 0.192 -0.184Zm-0.003 1.554h0.046c0.14 0 0.19 0.07 0.141 0.204 -0.006 0.019 -0.039 0.036 -0.062 0.038 -0.062 0.005 -0.124 -0.003 -0.187 0.003 -0.1 0.012 -0.132 -0.026 -0.133 -0.13 -0.003 -0.187 0.133 -0.087 0.195 -0.115m0.002 1.798h-0.051c-0.135 0 -0.184 -0.067 -0.136 -0.202 0.006 -0.018 0.038 -0.038 0.062 -0.04 0.054 -0.006 0.11 -0.002 0.165 -0.002 0.145 0 0.192 0.062 0.146 0.2 -0.006 0.02 -0.038 0.038 -0.06 0.042 -0.042 0.005 -0.085 0.001 -0.125 0.001Z" fill="#000000" stroke-width="1"></path>
</svg>